<?xml version="1.0" standalone="no"?><!DOCTYPE svg PUBLIC "-//W3C//DTD SVG 1.1//EN" "http://www.w3.org/Graphics/SVG/1.1/DTD/svg11.dtd"><svg t="1585329598719" class="icon" viewBox="0 0 1024 1024" version="1.1" xmlns="http://www.w3.org/2000/svg" p-id="21652" xmlns:xlink="http://www.w3.org/1999/xlink" width="200" height="200"><defs><style type="text/css"></style></defs><path d="M987.264 26.24A42.666667 42.666667 0 0 0 938.666667 19.669333 936.832 936.832 0 0 1 512 113.066667 936.405333 936.405333 0 0 1 85.333333 19.626667 42.965333 42.965333 0 0 0 36.949333 26.197333 42.154667 42.154667 0 0 0 25.6 71.381333c1.450667 3.626667 76.416 248.021333 78.122667 251.733334a42.666667 42.666667 0 0 0 38.698666 24.661333h107.776a21.333333 21.333333 0 0 1 21.333334 24.064l-11.050667 85.333333a21.333333 21.333333 0 0 1-21.333333 18.602667H170.666667a21.333333 21.333333 0 0 0-21.333334 21.333333v42.666667a21.333333 21.333333 0 0 0 21.333334 21.333333h51.925333a21.333333 21.333333 0 0 1 21.333333 24.064L195.072 961.28v0.384a42.666667 42.666667 0 0 0 42.368 47.402667H320a42.666667 42.666667 0 0 0 42.666667-42.666667v-384a21.333333 21.333333 0 0 1 21.333333-21.333333h256a21.333333 21.333333 0 0 1 21.333333 21.333333v384a42.666667 42.666667 0 0 0 42.666667 42.666667h82.773333a42.666667 42.666667 0 0 0 42.368-47.616v-0.469334l-48.682666-375.850666a21.333333 21.333333 0 0 1 21.333333-24.064H853.333333a21.333333 21.333333 0 0 0 21.333334-21.333334v-42.666666a21.333333 21.333333 0 0 0-21.333334-21.333334h-68.266666a21.333333 21.333333 0 0 1-21.333334-18.602666l-11.050666-85.333334a21.333333 21.333333 0 0 1 21.333333-24.064h107.904a43.008 43.008 0 0 0 39.509333-26.837333c1.621333-3.626667 75.221333-244.053333 76.8-247.466667a42.666667 42.666667 0 0 0-10.965333-47.189333zM661.333333 454.4a21.333333 21.333333 0 0 1-21.333333 21.333333h-64a21.333333 21.333333 0 0 1-21.333333-21.333333v-85.333333a21.333333 21.333333 0 0 1 21.333333-21.333334H640a21.333333 21.333333 0 0 1 21.333333 21.333334z m-298.666666-85.333333a21.333333 21.333333 0 0 1 21.333333-21.333334h64a21.333333 21.333333 0 0 1 21.333333 21.333334v85.333333a21.333333 21.333333 0 0 1-21.333333 21.333333H384a21.333333 21.333333 0 0 1-21.333333-21.333333z" p-id="21653"></path></svg>