<?xml version="1.0" standalone="no"?><!DOCTYPE svg PUBLIC "-//W3C//DTD SVG 1.1//EN" "http://www.w3.org/Graphics/SVG/1.1/DTD/svg11.dtd"><svg t="1585370217906" class="icon" viewBox="0 0 1024 1024" version="1.1" xmlns="http://www.w3.org/2000/svg" p-id="16471" xmlns:xlink="http://www.w3.org/1999/xlink" width="200" height="200"><defs><style type="text/css"></style></defs><path d="M669.4 896.3c-61.7 0-119.7-24-163.3-67.6-43.6-43.7-67.6-101.7-67.6-163.4s24-119.7 67.6-163.3 101.6-67.6 163.3-67.6 119.7 24 163.3 67.6 67.6 101.6 67.6 163.3c0 61.7-24 119.7-67.6 163.3-43.6 43.7-101.6 67.7-163.3 67.7z m0-391.9c-88.7 0-160.9 72.2-160.9 160.9s72.2 160.9 160.9 160.9S830.3 754 830.3 665.3c0.1-88.7-72.1-160.9-160.9-160.9z" p-id="16472"></path><path d="M919.9 950.1c-8.4 0-16.8-3-23.5-9.1l-109-99.1c-14.3-13-15.4-35.1-2.4-49.4 13-14.3 35.1-15.4 49.4-2.4l109 99.1c14.3 13 15.4 35.1 2.4 49.4-6.9 7.7-16.4 11.5-25.9 11.5zM388.5 954.2H104.1c-19.3 0-35-15.7-35-35V104.8c0-19.3 15.7-35 35-35h780c19.3 0 35 15.7 35 35v254.5c0 19.3-15.7 35-35 35s-35-15.7-35-35V139.8h-710v744.4h249.4c19.3 0 35 15.7 35 35s-15.6 35-35 35z" p-id="16473"></path><path d="M775.1 279.2h-568c-19.3 0-35-15.7-35-35s15.7-35 35-35h568c19.3 0 35 15.7 35 35s-15.6 35-35 35zM459.7 467H210.9c-19.3 0-35-15.7-35-35s15.7-35 35-35h248.7c19.3 0 35 15.7 35 35s-15.6 35-34.9 35z" p-id="16474"></path></svg>