<?xml version="1.0" standalone="no"?><!DOCTYPE svg PUBLIC "-//W3C//DTD SVG 1.1//EN" "http://www.w3.org/Graphics/SVG/1.1/DTD/svg11.dtd"><svg t="1585329352431" class="icon" viewBox="0 0 1024 1024" version="1.1" xmlns="http://www.w3.org/2000/svg" p-id="12266" xmlns:xlink="http://www.w3.org/1999/xlink" width="200" height="200"><defs><style type="text/css"></style></defs><path d="M822.976 992H655.28a36.256 36.256 0 0 1-36.464-36.8v-158.72H403.728v158.72a36.256 36.256 0 0 1-36.464 36.8H199.568a36.256 36.256 0 0 1-36.464-36.8V552.432H68.32a36.592 36.592 0 0 1-25.52-62.48L486.112 43.024a35.888 35.888 0 0 1 51.776 0l443.312 446.928a36.592 36.592 0 0 1-25.52 62.48h-131.2a36.8 36.8 0 0 1 0-73.504h43.024L512.368 120.944 157.28 478.928h43.024a36.256 36.256 0 0 1 36.464 36.8v402.816h94.784v-158.768a36.256 36.256 0 0 1 36.464-36.8h288a36.256 36.256 0 0 1 36.464 36.8v158.768h94.784V682.528a36.464 36.464 0 1 1 72.912 0V955.2a37.824 37.824 0 0 1-37.2 36.8z" p-id="12267"></path></svg>