<?xml version="1.0" standalone="no"?><!DOCTYPE svg PUBLIC "-//W3C//DTD SVG 1.1//EN" "http://www.w3.org/Graphics/SVG/1.1/DTD/svg11.dtd"><svg t="1585370455926" class="icon" viewBox="0 0 1024 1024" version="1.1" xmlns="http://www.w3.org/2000/svg" p-id="22757" xmlns:xlink="http://www.w3.org/1999/xlink" width="200" height="200"><defs><style type="text/css"></style></defs><path d="M501.047042 243.449661c-0.240477 37.285185-43.683918 76.179007-60.410881 88.022753-8.395204 5.949502-10.409071 17.577331-4.468778 25.977651 3.63376 5.15644 9.395998 7.904017 15.251356 7.904017 3.703345 0 7.447623-0.915859 10.703783-3.209088 3.099594-2.176572 75.815733-53.895491 76.218916-118.081349 0.234337-36.378535-18.920932-59.962673-35.821857-81.106226-17.786085-22.272259-34.595936-42.544979-34.425044-79.754438 0.044002-10.296507-8.258081-17.223267-18.553565-17.223267l-0.093121 0c-10.257621 0-18.597567 6.779404-18.647709 17.040095-0.23536 50.384527 23.51046 78.585823 42.595121 102.461603C488.92905 204.919113 501.190305 220.269729 501.047042 243.449661L501.047042 243.449661zM501.047042 243.449661" p-id="22758"></path><path d="M653.023362 400.381853c-10.168594-1.311879-19.512403 5.934153-20.814048 16.122189-1.311879 10.216689 5.900384 19.555381 16.119119 20.86726 0.242524 0.038886 5.057179 0.604774 13.068643 0.604774 34.223452 0 126.648468-10.292414 168.466899-116.278283 7.640004-19.365046 13.898545-36.317137 19.374256-51.175543 27.542286-74.716702 31.779797-86.195128 92.37999-92.533486 10.244318-1.075495 17.670451-10.242272 16.60826-20.484543-1.074472-10.252505-10.335393-17.695011-20.487613-16.60826-83.681888 8.748245-94.52791 38.147832-123.486452 116.721375-5.402033 14.633279-11.553127 31.330566-19.074428 50.388621C754.465752 411.178757 657.439952 400.88839 653.023362 400.381853L653.023362 400.381853zM653.023362 400.381853" p-id="22759"></path><path d="M936.461783 563.346435c-35.82595 0-65.427128-20.522406-94.061282-40.364313-31.06246-21.539572-63.197344-43.76169-102.092189-37.765115-47.323818 7.339152-76.380598 45.714158-77.598332 47.345308-6.125511 8.231475-4.425799 19.838837 3.776 26.003234 8.196683 6.170536 19.886933 4.504594 26.084075-3.668553 0.210801-0.275269 21.482267-27.871791 53.455469-32.822546 24.217564-3.744277 47.792493 12.609179 75.132164 31.555693 31.783891 22.035876 67.814502 47.009663 115.303073 47.009663 10.3006 0 18.647709-8.349155 18.647709-18.646686C955.108468 571.693544 946.762383 563.346435 936.461783 563.346435L936.461783 563.346435zM936.461783 563.346435" p-id="22760"></path><path d="M625.210923 231.784994c0 9.768481 4.021593 19.475564 10.927887 26.381857 6.913457 6.91141 16.619516 10.930957 26.390044 10.930957 9.765411 0 19.47761-4.019547 26.383904-10.930957 6.907317-6.906294 10.92891-16.613376 10.92891-26.381857 0-9.771551-4.021593-19.47761-10.92891-26.384927-6.906294-6.91141-16.618493-10.929934-26.383904-10.929934-9.770528 0-19.476587 4.018523-26.390044 10.929934C629.231493 212.307384 625.210923 222.01242 625.210923 231.784994L625.210923 231.784994zM625.210923 231.784994" p-id="22761"></path><path d="M720.198298 638.857223c0 9.766434 4.018523 19.476587 10.92584 26.383904 6.91141 6.907317 16.616446 10.930957 26.387997 10.930957 9.764388 0 19.476587-4.02364 26.383904-10.930957 6.906294-6.907317 10.929934-16.617469 10.929934-26.383904 0-9.770528-4.02364-19.475564-10.929934-26.38902-6.907317-6.90527-16.619516-10.924817-26.383904-10.924817-9.771551 0-19.476587 4.019547-26.387997 10.924817C724.216821 619.381659 720.198298 629.086695 720.198298 638.857223L720.198298 638.857223zM720.198298 638.857223" p-id="22762"></path><path d="M326.689992 245.349941c0 9.770528 4.02364 19.47761 10.929934 26.38902 6.907317 6.907317 16.618493 10.93198 26.390044 10.93198 9.764388 0 19.476587-4.024663 26.38288-10.93198 6.907317-6.910387 10.930957-16.617469 10.930957-26.38902 0-9.765411-4.024663-19.475564-10.930957-26.38288-6.907317-6.907317-16.618493-10.929934-26.38288-10.929934-9.771551 0-19.482727 4.02364-26.390044 10.929934C330.713632 225.8754 326.689992 235.58453 326.689992 245.349941L326.689992 245.349941zM326.689992 245.349941" p-id="22763"></path><path d="M291.918048 376.352577c-6.770194 6.769171-12.866029 16.391319-15.69547 29.747511L66.930877 873.943402c-8.277524 18.166755-1.715061 42.348504 16.21531 60.09161 12.756535 12.886495 28.727275 19.924795 43.35646 19.924795 5.919826 0 11.617595-1.149173 16.804734-3.530406l21.760606-9.717316c84.030835-37.520545 385.136637-171.96456 451.960579-201.87273 9.198499-2.7486 17.275455-7.139607 23.750937-13.618159 48.634674-48.63672-14.914688-164.816766-99.435687-249.455445C456.821795 391.367549 340.702124 327.84377 291.918048 376.352577L291.918048 376.352577zM316.443627 448.935686c0.088004 0.294712 0.245593 0.624217 0.338714 0.917906 0.191358 0.62831 0.461511 1.306762 0.668219 1.945305 0.61603 1.880837 1.316995 3.816932 2.030239 5.762237 0.7552 2.065032 1.556449 4.152577 2.421142 6.2831 0.342808 0.835018 0.603751 1.626034 0.961908 2.472308 0.398066 0.942465 0.87902 1.934049 1.297552 2.88777 1.213641 2.771113 2.51938 5.589298 3.91517 8.462742 0.432859 0.898463 0.771573 1.743714 1.222851 2.653433 0.196475 0.38681 0.436952 0.794086 0.629333 1.182942 0.122797 0.23536 0.265036 0.483001 0.388856 0.717338 0.956791 1.89107 2.032286 3.832282 3.059686 5.753027 1.930979 3.620457 3.954055 7.280824 6.106068 10.979052 0.520863 0.89437 0.949628 1.759063 1.479701 2.653433 0.417509 0.713244 0.840134 1.419326 1.26583 2.13257 0.575098 0.956791 1.252527 1.936095 1.841951 2.89698 1.856277 3.03001 3.831258 6.086625 5.815449 9.147334 0.206708 0.315178 0.412392 0.629333 0.6191 0.937348 1.671059 2.559289 3.287883 5.100158 5.0449 7.677866 0.064468 0.094144 0.11768 0.181125 0.183172 0.274246 1.728364 2.536776 3.604084 5.079692 5.41636 7.619538 2.122337 2.987031 4.13211 5.957689 6.361895 8.943696 0.309038 0.418532 0.623193 0.831948 0.933255 1.248434 1.822508 2.428306 3.815909 4.830005 5.702885 7.252171 2.082428 2.676969 4.15053 5.352915 6.307659 8.016581 0.069585 0.081864 0.137123 0.162706 0.201591 0.24457 1.885953 2.320858 3.821025 4.622274 5.767354 6.935969 0.422625 0.49528 0.824785 1.00284 1.24741 1.49812 2.771113 3.28072 5.590322 6.538927 8.454556 9.776667 0.846274 0.946558 1.64036 1.930979 2.494821 2.874467 1.027399 1.143033 2.057869 2.281973 3.099594 3.422959 0.707105 0.76748 1.390673 1.542122 2.102894 2.308579 0.231267 0.251733 0.452301 0.50756 0.688685 0.756223 4.38589 4.734838 8.841366 9.372461 13.355169 13.882172 4.381797 4.38589 8.749268 8.55791 13.107529 12.599969 1.020236 0.961908 2.01796 1.985214 3.048429 2.931772 0.226151 0.211824 0.451278 0.404206 0.679475 0.60989 3.27458 3.0208 6.580882 5.925966 9.882068 8.832156 1.292436 1.140986 2.580778 2.344395 3.875261 3.469008 0.36839 0.319272 0.727571 0.569982 1.101077 0.88823 1.526773 1.316995 3.006474 2.402723 4.52506 3.669576 5.853311 4.898567 11.718903 9.767458 17.60496 14.284331 2.407839 1.848091 4.814656 3.720741 7.215332 5.499248 0.864694 0.63752 1.680269 1.136893 2.536776 1.762133 2.470261 1.798972 4.863774 3.385097 7.293103 5.074575 3.664459 2.554172 7.344269 5.262864 10.990309 7.638981 0.494257 0.323365 0.970094 0.604774 1.469468 0.924045 0.36225 0.225127 0.720408 0.450255 1.089821 0.683569 1.919722 1.231037 3.835352 2.439562 5.750981 3.622504 2.720971 1.675152 5.436826 3.331885 8.135284 4.90266 1.527796 0.890276 3.035126 1.700735 4.552689 2.554172 1.277086 0.714268 2.559289 1.454118 3.826142 2.142803 2.564405 1.390673 5.099135 2.77009 7.594979 4.037966 1.885953 0.957815 3.713578 1.787716 5.573949 2.682086 2.030239 0.971118 4.097318 2.072195 6.107091 2.975774 1.100054 0.496304 2.12643 0.86674 3.217275 1.337461 0.664126 0.283456 1.356904 0.652869 2.020006 0.932232 9.188266 3.860934 13.490246 14.220886 10.143011 23.496134 0 0.00921 0 0.019443-0.005117 0.023536-0.106424 0.294712-0.054235 0.603751-0.182149 0.899486-2.991124 7.127328-9.912767 11.42726-17.196661 11.42726-2.072195 0-4.169973-0.532119-6.233981-1.2689-2.013867-0.823761-4.013407-1.636267-6.05081-2.529613-2.319835-1.032516-4.647857-2.108011-6.992251-3.217275-1.565658-0.747014-3.13848-1.51347-4.715395-2.294252-1.62501-0.806365-3.246951-1.611707-4.88731-2.451842-2.298346-1.193175-4.612041-2.450818-6.925736-3.718695-2.573615-1.410116-5.14723-2.820232-7.737218-4.322445-0.934279-0.535189-1.867534-1.071402-2.798742-1.619894-2.020006-1.190105-4.053316-2.456958-6.076392-3.700275-3.087315-1.89721-6.170536-3.790326-9.271154-5.807263-0.951675-0.618077-1.911536-1.24127-2.864234-1.876744-1.581008-1.039679-3.157923-2.139733-4.738931-3.211135-3.374864-2.294252-6.755868-4.602831-10.139941-7.030114-1.326205-0.948605-2.651386-1.925862-3.978614-2.89698-1.046842-0.76748-2.092661-1.566682-3.13848-2.349511-3.507894-2.608407-7.019881-5.236258-10.521634-7.980765-1.976004-1.544169-3.944845-3.15997-5.913687-4.752234-0.49221-0.398066-0.978281-0.800225-1.469468-1.199315-3.425006-2.780323-6.847965-5.555529-10.253528-8.452509-3.050476-2.600221-6.089695-5.321192-9.129938-8.02886-0.005117-0.004093-0.011256-0.00921-0.016373-0.014326l0-0.005117c-2.862187-2.537799-5.737678-5.02955-8.575306-7.649214-5.999644-5.54018-11.972683-11.227716-17.896602-17.152658-5.13802-5.13802-10.41828-10.649548-15.757892-16.45067-0.270153-0.295735-0.545422-0.610914-0.820692-0.914836-0.157589-0.177032-0.314155-0.353041-0.470721-0.531096-4.818749-5.275143-9.677407-10.771321-14.536065-16.489556-0.785899-0.928139-1.547239-1.870604-2.333138-2.805906-0.093121-0.11154-0.181125-0.230244-0.274246-0.343831-4.185322-4.995781-8.341992-10.132778-12.453636-15.388479-0.731664-0.938372-1.449002-1.88186-2.176572-2.824325-2.27481-2.954285-4.455475-5.955642-6.6607-8.946766-1.76725-2.38635-3.544733-4.754281-5.281283-7.182586-0.633427-0.883113-1.266853-1.763157-1.89107-2.647293-3.124154-4.445242-6.119371-8.931416-9.063423-13.420661-1.164522-1.771343-2.362814-3.526313-3.500731-5.314029-3.366677-5.299703-6.54302-10.604522-9.594519-15.911388-0.805342-1.404999-1.626034-2.794649-2.410909-4.194532-3.046383-5.462408-5.895267-10.900258-8.547677-16.304338-0.638543-1.297552-1.246387-2.577708-1.856277-3.866051-2.608407-5.516644-5.034666-10.994402-7.163143-16.393365-2.038426-5.152347-4.101411-10.30981-5.678326-15.383362-0.093121-0.314155-0.165776-0.605797-0.25992-0.918929-2.829442-9.766434 2.638083-20.023032 12.384052-23.014156 0.471744-0.137123 0.934279-0.029676 1.404999-0.130983 0.049119-0.011256 0.093121-0.00614 0.144286-0.016373C304.059576 434.452833 313.579393 439.61132 316.443627 448.935686L316.443627 448.935686zM316.443627 448.935686" p-id="22764"></path></svg>