<?xml version="1.0" standalone="no"?><!DOCTYPE svg PUBLIC "-//W3C//DTD SVG 1.1//EN" "http://www.w3.org/Graphics/SVG/1.1/DTD/svg11.dtd"><svg t="1585363708148" class="icon" viewBox="0 0 1026 1024" version="1.1" xmlns="http://www.w3.org/2000/svg" p-id="5582" xmlns:xlink="http://www.w3.org/1999/xlink" width="200.390625" height="200"><defs><style type="text/css"></style></defs><path d="M683.328 744.616c-17.101 0-34.136-7.14-46.499-21.15-31.763-36.082-77.042-56.72-124.239-56.72-47.96 0-92.086 20.061-124.109 56.46-23.31 26.429-62.948 28.486-88.697 4.44-25.74-23.99-27.667-64.754-4.357-91.183 55.333-62.827 134.488-98.835 217.162-98.835 82.553 0 161.708 36.138 217.228 99.086 23.319 26.429 21.336 67.193-4.347 91.183C713.499 739.151 698.381 744.616 683.328 744.616L683.328 744.616 683.328 744.616zM822.676 583.019c-16.002 0-32.079-6.302-44.311-18.776C707.28 491.52 612.886 451.519 512.59 451.519c-100.538 0-194.942 39.936-265.896 112.472-24.585 25.209-64.363 25.004-88.827-0.261-24.455-25.274-24.325-66.169 0.261-91.313 94.655-96.703 220.56-150.016 354.462-150.016 133.725 0 259.565 53.369 354.406 150.342 24.595 25.144 24.66 66.039 0.261 91.378C854.96 576.661 838.818 583.019 822.676 583.019L822.676 583.019 822.676 583.019zM961.716 421.814c-15.63 0-31.251-5.976-43.483-17.939C808.601 295.852 664.57 236.302 512.59 236.302c-152.287 0-296.383 59.42-405.755 167.387-24.986 24.623-64.745 23.85-88.827-1.936-24.017-25.721-23.18-66.616 1.787-91.313 132.887-131.109 307.852-203.385 492.73-203.385 184.506 0 359.471 72.276 492.609 203.45 25.041 24.697 25.87 65.592 1.927 91.313C994.699 415.13 978.175 421.814 961.716 421.814L961.716 421.814 961.716 421.814zM436.702 838.945c0 43.082 33.941 78.001 75.888 78.001 41.882 0 75.888-34.918 75.888-78.001s-34.006-78.001-75.888-78.001C470.708 761.009 436.702 795.862 436.702 838.945L436.702 838.945 436.702 838.945z" p-id="5583"></path></svg>